<svg version="1" xmlns="http://www.w3.org/2000/svg" width="666.667" height="666.667" viewBox="0 0 500.000000 500.000000"><path d="M0 250v250h500V0H0v250zM205.6 53.4c34.3 7.2 63 23.6 85.2 48.8 3.9 4.6 7.2 8.5 7.2 8.8 0 .3 9.3.5 20.8.5 12.8 0 23.5.5 28.2 1.3 9.4 1.7 27.9 6.5 34.5 9.1l5 1.9.3 8.1c.2 4.5.1 8.1-.2 8.1-.3 0-4-1.4-8.3-3-9.2-3.6-23.8-7.5-34.3-9.1-7.8-1.3-33.4-1.8-34.4-.8-.3.3 1.4 4.8 3.8 10s5.5 13.1 6.9 17.5c2.7 8.7 6.2 25.3 5.4 26-.3.3-14 .5-30.6.5H265v4.8c0 5.2 1 6.1 7 6.1 4.2 0 7 2.7 7 6.5 0 2.8-2.3 6.5-13.1 21-10.7 14.3-13.4 17.4-14.4 16.3-4.8-5-27.6-35.4-28.1-37.4-.4-1.3-.1-3.1.6-3.9 1.4-1.7 7.2-3.5 11.3-3.5 2.6 0 2.7-.2 2.7-5v-5.1l-22.5.3c-12.3.1-22.7-.1-23.1-.4-1.3-1.4 9.2-14.5 20.5-25.9 17.6-17.4 35.7-28.6 59.1-36.3l10.5-3.4-10-9.9C247.8 81.1 217.4 68 180 65.4c-16.9-1.1-42.1 2.3-59.1 8.1-4 1.4-7.6 2.5-8.1 2.5-.4 0-.8-3.5-.8-7.8v-7.8l5.8-1.8c11-3.5 20.3-5.5 38.7-8 1.7-.3 10.7-.3 20-.1 13.1.3 19.7 1 29.1 2.9zm121.1 154.8c-.6 18.8-2.3 29-7.7 45.7-3.6 11.1-17.7 40.4-19.1 39.6-.5-.4-8.8-9.9-18.4-21.2-15.3-18-17.3-20.8-16.2-22.2.8-.9 9.9-12.2 20.3-25.1 10.4-12.9 20.2-24.8 21.9-26.3 4.9-4.7 9-6.3 18.9-7.6.5 0 .6 7.3.3 17.1zm-134-9c9.1 9.6 44.1 53.3 43.4 54.2-11.3 14.8-41.9 52.1-45 54.9-4.7 4.2-9.7 6.7-13.4 6.7-2.2 0-2.6-.8-4.5-8.3-4-16.1-4.7-22.9-4.7-42.7.1-25.3 3.3-42.1 12.2-62.7l3.5-8.2 2.7 1.3c1.4.8 4 2.9 5.8 4.8zm74.2 90.5c9.9 13.1 18.1 24.2 18.1 24.8-.1 2-14.2 16.5-23.4 24.3-11.2 9.2-23.4 17.6-34.6 23.6l-8.2 4.3 6 6.9c22.9 26.7 53.8 46.5 86.2 55.4 23.2 6.3 53.9 7.3 73.8 2.3 2.1-.5 2.2-.3 2.2 7.4v7.9l-7.7 1.3c-62.6 10.1-130.8-18.2-172.4-71.7l-2.6-3.4-9.5 3.1c-21.9 7-46.5 9.9-68.3 8-7.1-.6-13.3-1.3-13.7-1.6-.5-.2-.8-3.8-.8-7.9V367l5.8.7c3.1.5 14.3.8 24.7.8 16-.1 20.7-.4 29.4-2.4 12.9-2.8 23.3-6 22.9-6.9-.2-.4-2.9-5.7-6-11.8-3.1-6-6.6-13.3-7.7-16.2L179 326l10.3-.2c5.6-.1 18.2-.1 28 .1l17.7.4V315h-3.5c-8 0-12.8-4.3-10.8-9.7.6-1.6 27.1-38.9 27.9-39.3 0 0 8.3 10.7 18.3 23.7z"/></svg>