<svg xmlns="http://www.w3.org/2000/svg" width="23" height="34" viewBox="0 0 23 34"><path d="M5.305 22.18c-1.053-3.474-.806-7.148.747-10.228.353.144.632.406.936.773l3.453 4.187-3.253 4.067c-.59.738-1.124 1.15-1.868 1.2h-.015zm9.208-.094a16.27 16.27 0 0 1-5.584 4.357c.198.256.403.51.623.758 3.607 4.107 8.89 5.703 13.45 4.606v1.308c-4.98 1.07-10.605-.746-14.417-5.08-.31-.35-.597-.71-.87-1.077-2.522.95-5.196 1.22-7.713.804v-1.29c2.256.412 4.672.22 6.98-.596a15.75 15.75 0 0 1-1.388-2.835c.703-.016 1.42-.03 2.155-.03.837 0 1.697.02 2.553.037v-.87c-.818-.037-1.276-.216-1.276-.63 0-.18.102-.374.278-.613l2.116-2.883 3.06 3.984.035.048zm3.46-10.27c.184 2.912-.592 5.932-2.25 8.592l-3.025-3.557 3.193-3.965c.58-.73 1.16-1.068 1.957-1.068l.127-.002zM23 6.185v1.376c-2.13-.95-4.412-1.345-6.604-1.155a12.524 12.524 0 0 1 1.496 4.543h-.045c-.775.02-1.6.036-2.434.036-.84 0-1.718-.017-2.634-.037v.867c.816 0 1.195.12 1.195.554 0 .218-.12.473-.38.81l-1.856 2.467-2.178-2.782c-.16-.217-.297-.376-.297-.594 0-.294.36-.472.997-.472.098 0 .2.02.298.02v-.87c-.936.02-1.836.038-2.695.038-.436 0-.856-.003-1.265-.01a12.368 12.368 0 0 1 2.433-2.83 12.516 12.516 0 0 1 5.186-2.666c-.09-.11-.183-.22-.276-.33C10.578 1.323 4.988.29 0 2.213V.862C5.326-.994 11.24.143 14.914 4.32c.25.288.493.587.712.894 2.436-.33 4.987.01 7.374.972z" fill="#FFF" fill-rule="evenodd"/></svg>
