<svg width="80" height="38" viewBox="0 0 80 38" xmlns="http://www.w3.org/2000/svg"><g fill="#FFF" fill-rule="evenodd"><path d="M42.28 13.352h.368c1.166 0 1.486.472 1.486 1.71v8.397c0 1.24-.32 1.712-1.486 1.712h-.368v.988c1.053-.042 2.082-.042 3.137-.042 1.026 0 2.08 0 3.13.042v-.988h-.364c-1.19 0-1.487-.45-1.487-1.713v-8.397c0-1.26.296-1.71 1.487-1.71h.365v-.99c-1.052.02-2.105.042-3.13.042-1.056 0-2.085-.022-3.138-.043v.99zm14.36-1.304c-4.346 0-6.93 2.61-6.93 7.204 0 4.59 2.584 7.224 6.93 7.224 4.35 0 6.91-2.634 6.91-7.224 0-4.593-2.56-7.204-6.91-7.204m0 1.37c2.678 0 4.165 2.005 4.165 5.812 0 3.8-1.487 5.807-4.164 5.807-2.653 0-4.162-2.006-4.162-5.807 0-3.807 1.51-5.813 4.163-5.813m8.165-1.055v.99h.345c1.12 0 1.462.472 1.462 1.643v8.464c0 1.26-.343 1.712-1.512 1.712h-.365v.988c.892-.042 1.807-.042 2.77-.042.96 0 1.944 0 2.95.042v-.988h-.392c-1.186 0-1.485-.472-1.485-1.713l-.023-9.075 5.95 11.775h3.155v-11.23c0-1.104.344-1.576 1.462-1.576h.346v-.99c-.89.02-1.808.043-2.746.043-.912 0-1.876-.022-2.884-.043v.99h.367c1.192 0 1.486.452 1.486 1.71l.026 9.072-5.93-11.772a62.04 62.04 0 0 1-2.148.043c-.82 0-1.763-.022-2.835-.043m-54.736.292c-1.785-.406-3.296-.606-4.485-.606-3.568 0-5.467 1.44-5.467 3.87 0 1.78 1.076 2.75 3.34 3.693l2.652 1.104c1.192.497 1.784 1.126 1.784 2.137 0 1.488-1.096 2.39-3.043 2.39-2.24 0-3.337-.902-3.337-2.723 0-.136 0-.292.023-.453H.07v3.873c1.877.362 3.524.54 4.92.54 3.57 0 5.535-1.552 5.535-4.028 0-1.736-.963-2.887-2.974-3.67l-2.9-1.15c-1.328-.514-1.946-1.034-1.946-2.14 0-1.35 1.118-2.204 3.134-2.204 1.896 0 2.766.81 2.766 2.5 0 .156 0 .336-.02.516h1.487v-3.648M26.88 26.142c-.123-.323-.23-.647-.327-.975-1.206-.09-1.502-.718-1.94-1.818l-4.39-10.988H17.25L12.81 23.35c-.48 1.167-.894 1.776-1.896 1.822v.988c.913-.023 1.83-.042 2.764-.042.94 0 1.9.02 2.863.042v-.988c-1.167 0-1.67-.18-1.67-.854 0-.203.067-.428.16-.7l.8-2.273h5.444l.71 1.982c.16.472.23.83.23 1.056 0 .61-.48.766-1.697.79v.987c.943-.042 1.902-.042 2.91-.042 1.007 0 2.378-.017 3.452.024m-8.305-12.248l2.174 6.078H16.33l2.243-6.078"/><path d="M26.553 25.167c-1.2-3.937-.918-8.1.85-11.59.4.165.72.462 1.064.878l3.93 4.742-3.703 4.608c-.673.838-1.28 1.304-2.126 1.362h-.015zm10.48-.108c-.663.8-1.402 1.558-2.222 2.257a18.506 18.506 0 0 1-4.134 2.68c.225.29.46.578.71.858 4.104 4.652 10.117 6.46 15.308 5.218v1.48c-5.67 1.215-12.072-.844-16.41-5.752-.352-.396-.68-.805-.99-1.22-2.87 1.076-5.915 1.382-8.78.912V30.03c2.567.467 5.318.25 7.946-.675a17.691 17.691 0 0 1-1.58-3.21c.8-.02 1.614-.037 2.452-.037.952 0 1.93.023 2.906.043v-.983c-.932-.043-1.453-.246-1.453-.716 0-.2.116-.422.316-.692l2.41-3.266 3.482 4.513.04.054zm3.94-11.636c.208 3.3-.675 6.72-2.563 9.734l-3.443-4.03 3.635-4.493c.66-.826 1.32-1.21 2.226-1.21h.145zm5.72-6.377v1.56c-2.423-1.077-5.02-1.525-7.516-1.31a14.146 14.146 0 0 1 1.702 5.147h-.052c-.882.02-1.82.04-2.77.04-.955 0-1.956-.02-3-.04v.982c.93 0 1.363.136 1.363.627 0 .246-.135.536-.43.917l-2.114 2.795-2.48-3.152c-.18-.246-.336-.425-.336-.673 0-.334.408-.535 1.135-.535.11 0 .226.02.34.02v-.982c-1.067.022-2.09.042-3.07.042-.495 0-.973-.004-1.438-.01a13.896 13.896 0 0 1 2.77-3.208 14.29 14.29 0 0 1 5.902-3.02c-.103-.126-.21-.25-.315-.372-3.83-4.338-10.194-5.508-15.87-3.33V1.017C26.574-1.088 33.308.2 37.49 4.932c.285.327.56.666.81 1.013 2.774-.373 5.677.012 8.394 1.102z"/></g></svg>
